{"asset":{"version":"2.0","generator":"Blockbench 5.1.3 glTF exporter"},"scenes":[{"nodes":[20],"name":"blockbench_export"}],"scene":0,"nodes":[{"rotation":[0.7071067811865475,0,0,0.7071067811865476],"name":"tube","mesh":0},{"rotation":[0,0,0.7071067811865475,0.7071067811865476],"translation":[0,6.938893903907228e-17,0.25],"name":"tube","mesh":1},{"rotation":[0,0,0.7071067811865475,0.7071067811865476],"translation":[0,6.938893903907228e-17,2.9375],"name":"tube","mesh":2},{"rotation":[0.7071067811865475,0,0,0.7071067811865476],"translation":[-2.6875,0,0],"name":"tube","mesh":3},{"name":"group","children":[0,1,2,3]},{"name":"mesh","mesh":4},{"translation":[0,0,-1.75],"name":"mesh","mesh":5},{"translation":[-2.6875,0,0],"name":"mesh","mesh":6},{"translation":[2.6875,0,0],"name":"mesh","mesh":7},{"translation":[0,0,2.6875],"name":"mesh","mesh":8},{"translation":[-2.6875,0,2.6875],"name":"mesh","mesh":9},{"name":"cylinder","mesh":10},{"translation":[-0.125,0.5,-0.125],"name":"cylinder","mesh":11},{"translation":[0.125,0.5,0.125],"name":"cylinder","mesh":12},{"translation":[2.6875,0.3125,0],"name":"group3","children":[11,12,13]},{"rotation":[0,0,0.7071067811865475,0.7071067811865476],"translation":[0.375,0,0],"name":"tube","mesh":13},{"rotation":[0,0,0.7071067811865475,0.7071067811865476],"name":"cylinder","mesh":14},{"translation":[-0.375,0,-1.875],"name":"group4","children":[15,16]},{"translation":[0,0,0.25],"name":"group2","children":[5,6,7,8,9,10,14,17]},{"translation":[0,0.3125,0.25],"name":"cylinder","mesh":15},{"translation":[0,0,-0.25],"name":"group5","children":[4,18,19]}],"bufferViews":[{"buffer":0,"byteOffset":0,"byteLength":2304,"target":34962,"byteStride":12},{"buffer":0,"byteOffset":2304,"byteLength":2304,"target":34962,"byteStride":12},{"buffer":0,"byteOffset":4608,"byteLength":1536,"target":34962,"byteStride":8},{"buffer":0,"byteOffset":6144,"byteLength":576,"target":34963},{"buffer":0,"byteOffset":6720,"byteLength":2304,"target":34962,"byteStride":12},{"buffer":0,"byteOffset":9024,"byteLength":2304,"target":34962,"byteStride":12},{"buffer":0,"byteOffset":11328,"byteLength":1536,"target":34962,"byteStride":8},{"buffer":0,"byteOffset":12864,"byteLength":576,"target":34963},{"buffer":0,"byteOffset":13440,"byteLength":2304,"target":34962,"byteStride":12},{"buffer":0,"byteOffset":15744,"byteLength":2304,"target":34962,"byteStride":12},{"buffer":0,"byteOffset":18048,"byteLength":1536,"target":34962,"byteStride":8},{"buffer":0,"byteOffset":19584,"byteLength":576,"target":34963},{"buffer":0,"byteOffset":20160,"byteLength":2304,"target":34962,"byteStride":12},{"buffer":0,"byteOffset":22464,"byteLength":2304,"target":34962,"byteStride":12},{"buffer":0,"byteOffset":24768,"byteLength":1536,"target":34962,"byteStride":8},{"buffer":0,"byteOffset":26304,"byteLength":576,"target":34963},{"buffer":0,"byteOffset":26880,"byteLength":288,"target":34962,"byteStride":12},{"buffer":0,"byteOffset":27168,"byteLength":288,"target":34962,"byteStride":12},{"buffer":0,"byteOffset":27456,"byteLength":192,"target":34962,"byteStride":8},{"buffer":0,"byteOffset":27648,"byteLength":72,"target":34963},{"buffer":0,"byteOffset":27720,"byteLength":288,"target":34962,"byteStride":12},{"buffer":0,"byteOffset":28008,"byteLength":288,"target":34962,"byteStride":12},{"buffer":0,"byteOffset":28296,"byteLength":192,"target":34962,"byteStride":8},{"buffer":0,"byteOffset":28488,"byteLength":72,"target":34963},{"buffer":0,"byteOffset":28560,"byteLength":288,"target":34962,"byteStride":12},{"buffer":0,"byteOffset":28848,"byteLength":288,"target":34962,"byteStride":12},{"buffer":0,"byteOffset":29136,"byteLength":192,"target":34962,"byteStride":8},{"buffer":0,"byteOffset":29328,"byteLength":72,"target":34963},{"buffer":0,"byteOffset":29400,"byteLength":288,"target":34962,"byteStride":12},{"buffer":0,"byteOffset":29688,"byteLength":288,"target":34962,"byteStride":12},{"buffer":0,"byteOffset":29976,"byteLength":192,"target":34962,"byteStride":8},{"buffer":0,"byteOffset":30168,"byteLength":72,"target":34963},{"buffer":0,"byteOffset":30240,"byteLength":288,"target":34962,"byteStride":12},{"buffer":0,"byteOffset":30528,"byteLength":288,"target":34962,"byteStride":12},{"buffer":0,"byteOffset":30816,"byteLength":192,"target":34962,"byteStride":8},{"buffer":0,"byteOffset":31008,"byteLength":72,"target":34963},{"buffer":0,"byteOffset":31080,"byteLength":288,"target":34962,"byteStride":12},{"buffer":0,"byteOffset":31368,"byteLength":288,"target":34962,"byteStride":12},{"buffer":0,"byteOffset":31656,"byteLength":192,"target":34962,"byteStride":8},{"buffer":0,"byteOffset":31848,"byteLength":72,"target":34963},{"buffer":0,"byteOffset":31920,"byteLength":1440,"target":34962,"byteStride":12},{"buffer":0,"byteOffset":33360,"byteLength":1440,"target":34962,"byteStride":12},{"buffer":0,"byteOffset":34800,"byteLength":960,"target":34962,"byteStride":8},{"buffer":0,"byteOffset":35760,"byteLength":288,"target":34963},{"buffer":0,"byteOffset":36048,"byteLength":1440,"target":34962,"byteStride":12},{"buffer":0,"byteOffset":37488,"byteLength":1440,"target":34962,"byteStride":12},{"buffer":0,"byteOffset":38928,"byteLength":960,"target":34962,"byteStride":8},{"buffer":0,"byteOffset":39888,"byteLength":288,"target":34963},{"buffer":0,"byteOffset":40176,"byteLength":1440,"target":34962,"byteStride":12},{"buffer":0,"byteOffset":41616,"byteLength":1440,"target":34962,"byteStride":12},{"buffer":0,"byteOffset":43056,"byteLength":960,"target":34962,"byteStride":8},{"buffer":0,"byteOffset":44016,"byteLength":288,"target":34963},{"buffer":0,"byteOffset":44304,"byteLength":2304,"target":34962,"byteStride":12},{"buffer":0,"byteOffset":46608,"byteLength":2304,"target":34962,"byteStride":12},{"buffer":0,"byteOffset":48912,"byteLength":1536,"target":34962,"byteStride":8},{"buffer":0,"byteOffset":50448,"byteLength":576,"target":34963},{"buffer":0,"byteOffset":51024,"byteLength":1440,"target":34962,"byteStride":12},{"buffer":0,"byteOffset":52464,"byteLength":1440,"target":34962,"byteStride":12},{"buffer":0,"byteOffset":53904,"byteLength":960,"target":34962,"byteStride":8},{"buffer":0,"byteOffset":54864,"byteLength":288,"target":34963},{"buffer":0,"byteOffset":55152,"byteLength":1440,"target":34962,"byteStride":12},{"buffer":0,"byteOffset":56592,"byteLength":1440,"target":34962,"byteStride":12},{"buffer":0,"byteOffset":58032,"byteLength":960,"target":34962,"byteStride":8},{"buffer":0,"byteOffset":58992,"byteLength":288,"target":34963}],"buffers":[{"byteLength":59280,"uri":"data:application/octet-stream;base64,"}],"accessors":[{"bufferView":0,"componentType":5126,"count":192,"max":[0.3125,2.4375,0.3125],"min":[-0.3125,-1.9375,-0.3125],"type":"VEC3"},{"bufferView":1,"componentType":5126,"count":192,"max":[1,1,1],"min":[-1,-1,-1],"type":"VEC3"},{"bufferView":2,"componentType":5126,"count":192,"max":[0.3291015625,0.275390625],"min":[0.0634392574429512,0],"type":"VEC2"},{"bufferView":3,"componentType":5123,"count":288,"max":[191],"min":[0],"type":"SCALAR"},{"bufferView":4,"componentType":5126,"count":192,"max":[0.3125,2.1875,0.3125],"min":[-0.3125,-2.1875,-0.3125],"type":"VEC3"},{"bufferView":5,"componentType":5126,"count":192,"max":[1,1,1],"min":[-1,-1,-1],"type":"VEC3"},{"bufferView":6,"componentType":5126,"count":192,"max":[0.3291015625,0.328125],"min":[0.0634392574429512,0],"type":"VEC2"},{"bufferView":7,"componentType":5123,"count":288,"max":[191],"min":[0],"type":"SCALAR"},{"bufferView":8,"componentType":5126,"count":192,"max":[0.3125,2.1875,0.3125],"min":[-0.3125,0.5,-0.3125],"type":"VEC3"},{"bufferView":9,"componentType":5126,"count":192,"max":[1,1,1],"min":[-1,-1,-1],"type":"VEC3"},{"bufferView":10,"componentType":5126,"count":192,"max":[0.3291015625,0.353515625],"min":[0.12567128241062164,0.0664062350988388],"type":"VEC2"},{"bufferView":11,"componentType":5123,"count":288,"max":[191],"min":[0],"type":"SCALAR"},{"bufferView":12,"componentType":5126,"count":192,"max":[0.3125,2.4375,0.3125],"min":[-0.3125,0.75,-0.3125],"type":"VEC3"},{"bufferView":13,"componentType":5126,"count":192,"max":[1,1,1],"min":[-1,-1,-1],"type":"VEC3"},{"bufferView":14,"componentType":5126,"count":192,"max":[0.3291015625,0.353515625],"min":[0.06317128241062164,0.0664062350988388],"type":"VEC2"},{"bufferView":15,"componentType":5123,"count":288,"max":[191],"min":[0],"type":"SCALAR"},{"bufferView":16,"componentType":5126,"count":24,"max":[0.5,0.3499999940395355,0.5],"min":[-0.5,-0.3499999940395355,-0.5],"type":"VEC3"},{"bufferView":17,"componentType":5126,"count":24,"max":[1,1,1],"min":[-1,-1,-1],"type":"VEC3"},{"bufferView":18,"componentType":5126,"count":24,"max":[0.306640625,0.287109375],"min":[0.203125,0],"type":"VEC2"},{"bufferView":19,"componentType":5123,"count":36,"max":[23],"min":[0],"type":"SCALAR"},{"bufferView":20,"componentType":5126,"count":24,"max":[0.375,0.3499999940395355,0.25],"min":[-0.375,-0.3499999940395355,-0.5],"type":"VEC3"},{"bufferView":21,"componentType":5126,"count":24,"max":[1,1,1],"min":[-1,-1,-1],"type":"VEC3"},{"bufferView":22,"componentType":5126,"count":24,"max":[0.33203125,0.328125],"min":[0.26953125,0],"type":"VEC2"},{"bufferView":23,"componentType":5123,"count":36,"max":[23],"min":[0],"type":"SCALAR"},{"bufferView":24,"componentType":5126,"count":24,"max":[0.5,0.3499999940395355,0.5],"min":[-0.5,-0.3499999940395355,-0.5],"type":"VEC3"},{"bufferView":25,"componentType":5126,"count":24,"max":[1,1,1],"min":[-1,-1,-1],"type":"VEC3"},{"bufferView":26,"componentType":5126,"count":24,"max":[0.306640625,0.298828125],"min":[0.0624999962747097,0.1992187649011612],"type":"VEC2"},{"bufferView":27,"componentType":5123,"count":36,"max":[23],"min":[0],"type":"SCALAR"},{"bufferView":28,"componentType":5126,"count":24,"max":[0.5,0.3499999940395355,0.5],"min":[-0.5,-0.3499999940395355,-0.5],"type":"VEC3"},{"bufferView":29,"componentType":5126,"count":24,"max":[1,1,1],"min":[-1,-1,-1],"type":"VEC3"},{"bufferView":30,"componentType":5126,"count":24,"max":[0.306640625,0.3105469048023224],"min":[0.162109375,0],"type":"VEC2"},{"bufferView":31,"componentType":5123,"count":36,"max":[23],"min":[0],"type":"SCALAR"},{"bufferView":32,"componentType":5126,"count":24,"max":[0.5,0.3499999940395355,0.5],"min":[-0.5,-0.3499999940395355,-0.5],"type":"VEC3"},{"bufferView":33,"componentType":5126,"count":24,"max":[1,1,1],"min":[-1,-1,-1],"type":"VEC3"},{"bufferView":34,"componentType":5126,"count":24,"max":[0.306640625,0.1621093899011612],"min":[0.203125,0.0664062350988388],"type":"VEC2"},{"bufferView":35,"componentType":5123,"count":36,"max":[23],"min":[0],"type":"SCALAR"},{"bufferView":36,"componentType":5126,"count":24,"max":[0.5,0.3499999940395355,0.5],"min":[-0.5,-0.3499999940395355,-0.5],"type":"VEC3"},{"bufferView":37,"componentType":5126,"count":24,"max":[1,1,1],"min":[-1,-1,-1],"type":"VEC3"},{"bufferView":38,"componentType":5126,"count":24,"max":[0.306640625,0.255859375],"min":[0.203125,0.1328125149011612],"type":"VEC2"},{"bufferView":39,"componentType":5123,"count":36,"max":[23],"min":[0],"type":"SCALAR"},{"bufferView":40,"componentType":5126,"count":120,"max":[0.25,0.5,0.25],"min":[-0.25,0,-0.25],"type":"VEC3"},{"bufferView":41,"componentType":5126,"count":120,"max":[1,1,1],"min":[-1,-1,-1],"type":"VEC3"},{"bufferView":42,"componentType":5126,"count":120,"max":[0.345703125,0.345703125],"min":[0.2661808729171753,0.0957031100988388],"type":"VEC2"},{"bufferView":43,"componentType":5123,"count":144,"max":[119],"min":[0],"type":"SCALAR"},{"bufferView":44,"componentType":5126,"count":120,"max":[0.03125,0.5,0.03125],"min":[-0.03125,0,-0.03125],"type":"VEC3"},{"bufferView":45,"componentType":5126,"count":120,"max":[1,1,1],"min":[-1,-1,-1],"type":"VEC3"},{"bufferView":46,"componentType":5126,"count":120,"max":[0.27129295468330383,0.3046875],"min":[0.1953125,0.046874988824129105],"type":"VEC2"},{"bufferView":47,"componentType":5123,"count":144,"max":[119],"min":[0],"type":"SCALAR"},{"bufferView":48,"componentType":5126,"count":120,"max":[0.03125,0.5,0.03125],"min":[-0.03125,0,-0.03125],"type":"VEC3"},{"bufferView":49,"componentType":5126,"count":120,"max":[1,1,1],"min":[-1,-1,-1],"type":"VEC3"},{"bufferView":50,"componentType":5126,"count":120,"max":[0.30449607968330383,0.328125],"min":[0.1953125,0.02539060451090336],"type":"VEC2"},{"bufferView":51,"componentType":5123,"count":144,"max":[119],"min":[0],"type":"SCALAR"},{"bufferView":52,"componentType":5126,"count":192,"max":[0.25,0.6875,0.25],"min":[-0.25,0,-0.25],"type":"VEC3"},{"bufferView":53,"componentType":5126,"count":192,"max":[1,1,1],"min":[-1,-1,-1],"type":"VEC3"},{"bufferView":54,"componentType":5126,"count":192,"max":[0.34375,0.3515624701976776],"min":[0.1880558580160141,0],"type":"VEC2"},{"bufferView":55,"componentType":5123,"count":288,"max":[191],"min":[0],"type":"SCALAR"},{"bufferView":56,"componentType":5126,"count":120,"max":[0.3125,0.375,0.3125],"min":[-0.3125,0.125,-0.3125],"type":"VEC3"},{"bufferView":57,"componentType":5126,"count":120,"max":[1,1,1],"min":[-1,-1,-1],"type":"VEC3"},{"bufferView":58,"componentType":5126,"count":120,"max":[0.3486701250076294,0.2910156548023224],"min":[0.30859375,0.1484375],"type":"VEC2"},{"bufferView":59,"componentType":5123,"count":144,"max":[119],"min":[0],"type":"SCALAR"},{"bufferView":60,"componentType":5126,"count":120,"max":[0.25,46.5,0.25],"min":[-0.25,0,-0.25],"type":"VEC3"},{"bufferView":61,"componentType":5126,"count":120,"max":[1,1,1],"min":[-1,-1,-1],"type":"VEC3"},{"bufferView":62,"componentType":5126,"count":120,"max":[0.345703125,0.2304687649011612],"min":[0.0005558593547903001,0],"type":"VEC2"},{"bufferView":63,"componentType":5123,"count":144,"max":[119],"min":[0],"type":"SCALAR"}],"materials":[{"pbrMetallicRoughness":{"metallicFactor":0,"roughnessFactor":1,"baseColorTexture":{"index":0}},"alphaMode":"MASK","alphaCutoff":0.05,"doubleSided":true}],"textures":[{"sampler":0,"source":0}],"samplers":[{"magFilter":9728,"minFilter":9728,"wrapS":33071,"wrapT":33071}],"images":[{"mimeType":"image/png","uri":"data:image/png;base64,"}],"meshes":[{"primitives":[{"mode":4,"attributes":{"POSITION":0,"NORMAL":1,"TEXCOORD_0":2},"indices":3,"material":0}]},{"primitives":[{"mode":4,"attributes":{"POSITION":4,"NORMAL":5,"TEXCOORD_0":6},"indices":7,"material":0}]},{"primitives":[{"mode":4,"attributes":{"POSITION":8,"NORMAL":9,"TEXCOORD_0":10},"indices":11,"material":0}]},{"primitives":[{"mode":4,"attributes":{"POSITION":12,"NORMAL":13,"TEXCOORD_0":14},"indices":15,"material":0}]},{"primitives":[{"mode":4,"attributes":{"POSITION":16,"NORMAL":17,"TEXCOORD_0":18},"indices":19,"material":0}]},{"primitives":[{"mode":4,"attributes":{"POSITION":20,"NORMAL":21,"TEXCOORD_0":22},"indices":23,"material":0}]},{"primitives":[{"mode":4,"attributes":{"POSITION":24,"NORMAL":25,"TEXCOORD_0":26},"indices":27,"material":0}]},{"primitives":[{"mode":4,"attributes":{"POSITION":28,"NORMAL":29,"TEXCOORD_0":30},"indices":31,"material":0}]},{"primitives":[{"mode":4,"attributes":{"POSITION":32,"NORMAL":33,"TEXCOORD_0":34},"indices":35,"material":0}]},{"primitives":[{"mode":4,"attributes":{"POSITION":36,"NORMAL":37,"TEXCOORD_0":38},"indices":39,"material":0}]},{"primitives":[{"mode":4,"attributes":{"POSITION":40,"NORMAL":41,"TEXCOORD_0":42},"indices":43,"material":0}]},{"primitives":[{"mode":4,"attributes":{"POSITION":44,"NORMAL":45,"TEXCOORD_0":46},"indices":47,"material":0}]},{"primitives":[{"mode":4,"attributes":{"POSITION":48,"NORMAL":49,"TEXCOORD_0":50},"indices":51,"material":0}]},{"primitives":[{"mode":4,"attributes":{"POSITION":52,"NORMAL":53,"TEXCOORD_0":54},"indices":55,"material":0}]},{"primitives":[{"mode":4,"attributes":{"POSITION":56,"NORMAL":57,"TEXCOORD_0":58},"indices":59,"material":0}]},{"primitives":[{"mode":4,"attributes":{"POSITION":60,"NORMAL":61,"TEXCOORD_0":62},"indices":63,"material":0}]}]}